<?xml version="1.0" encoding="UTF-8" standalone="no"?>
<!DOCTYPE svg PUBLIC "-//W3C//DTD SVG 1.1//EN"
 "http://www.w3.org/Graphics/SVG/1.1/DTD/svg11.dtd">
<!-- Generated by graphviz version 14.1.3 (20260303.0454)
 -->
<!-- Title: pastafarianism Pages: 1 -->
<svg width="254pt" height="116pt"
 viewBox="0.00 0.00 254.00 116.00" xmlns="http://www.w3.org/2000/svg" xmlns:xlink="http://www.w3.org/1999/xlink">
<g id="graph0" class="graph" transform="scale(1 1) rotate(0) translate(4 112)">
<title>pastafarianism</title>
<polygon fill="white" stroke="none" points="-4,4 -4,-112 250.05,-112 250.05,4 -4,4"/>
<!-- Sequence -->
<g id="node1" class="node">
<title>Sequence</title>
<polygon fill="orange" stroke="black" points="153.99,-108 99.99,-108 99.99,-72 153.99,-72 153.99,-108"/>
<text xml:space="preserve" text-anchor="middle" x="126.99" y="-86.7" font-family="Times,serif" font-size="9.00">Sequence</text>
</g>
<!-- DetectObject -->
<g id="node2" class="node">
<title>DetectObject</title>
<ellipse fill="gray" stroke="black" cx="35.99" cy="-18" rx="35.99" ry="18"/>
<text xml:space="preserve" text-anchor="middle" x="35.99" y="-14.7" font-family="Times,serif" font-size="9.00">DetectObject</text>
</g>
<!-- Sequence&#45;&gt;DetectObject -->
<g id="edge1" class="edge">
<title>Sequence&#45;&gt;DetectObject</title>
<path fill="none" stroke="black" d="M104.5,-71.7C92.3,-62.31 77.11,-50.63 64.13,-40.65"/>
<polygon fill="black" stroke="black" points="66.41,-37.98 56.35,-34.66 62.14,-43.53 66.41,-37.98"/>
</g>
<!-- ObjectVisible -->
<g id="node3" class="node">
<title>ObjectVisible</title>
<ellipse fill="gray" stroke="black" cx="126.99" cy="-18" rx="37.3" ry="18"/>
<text xml:space="preserve" text-anchor="middle" x="126.99" y="-14.7" font-family="Times,serif" font-size="9.00">ObjectVisible</text>
</g>
<!-- Sequence&#45;&gt;ObjectVisible -->
<g id="edge2" class="edge">
<title>Sequence&#45;&gt;ObjectVisible</title>
<path fill="none" stroke="black" d="M126.99,-71.7C126.99,-64.41 126.99,-55.73 126.99,-47.54"/>
<polygon fill="black" stroke="black" points="130.49,-47.62 126.99,-37.62 123.49,-47.62 130.49,-47.62"/>
</g>
<!-- PickObject -->
<g id="node4" class="node">
<title>PickObject</title>
<ellipse fill="gray" stroke="black" cx="213.99" cy="-18" rx="32.06" ry="18"/>
<text xml:space="preserve" text-anchor="middle" x="213.99" y="-14.7" font-family="Times,serif" font-size="9.00">PickObject</text>
</g>
<!-- Sequence&#45;&gt;PickObject -->
<g id="edge3" class="edge">
<title>Sequence&#45;&gt;PickObject</title>
<path fill="none" stroke="black" d="M148.5,-71.7C160.32,-62.18 175.08,-50.3 187.6,-40.23"/>
<polygon fill="black" stroke="black" points="189.47,-43.22 195.06,-34.23 185.08,-37.77 189.47,-43.22"/>
</g>
</g>
</svg>
