<?xml version="1.0" encoding="UTF-8" standalone="no"?>
<!DOCTYPE svg PUBLIC "-//W3C//DTD SVG 1.1//EN"
 "http://www.w3.org/Graphics/SVG/1.1/DTD/svg11.dtd">
<!-- Generated by graphviz version 14.1.3 (20260303.0454)
 -->
<!-- Title: pastafarianism Pages: 1 -->
<svg width="1541pt" height="332pt"
 viewBox="0.00 0.00 1541.00 332.00" xmlns="http://www.w3.org/2000/svg" xmlns:xlink="http://www.w3.org/1999/xlink">
<g id="graph0" class="graph" transform="scale(1 1) rotate(0) translate(4 328)">
<title>pastafarianism</title>
<polygon fill="white" stroke="none" points="-4,4 -4,-328 1537.16,-328 1537.16,4 -4,4"/>
<!-- main_loop -->
<g id="node1" class="node">
<title>main_loop</title>
<polygon fill="cyan" stroke="black" points="526.98,-298.54 526.98,-313.46 507.21,-324 479.24,-324 459.47,-313.46 459.47,-298.54 479.24,-288 507.21,-288 526.98,-298.54"/>
<text xml:space="preserve" text-anchor="middle" x="493.22" y="-302.7" font-family="Times,serif" font-size="9.00">main_loop</text>
</g>
<!-- goal_already_met -->
<g id="node2" class="node">
<title>goal_already_met</title>
<polygon fill="orange" stroke="black" points="206.35,-252 128.1,-252 128.1,-216 206.35,-216 206.35,-252"/>
<text xml:space="preserve" text-anchor="middle" x="167.22" y="-230.7" font-family="Times,serif" font-size="9.00">goal_already_met</text>
</g>
<!-- main_loop&#45;&gt;goal_already_met -->
<g id="edge1" class="edge">
<title>main_loop&#45;&gt;goal_already_met</title>
<path fill="none" stroke="black" d="M459.87,-297.84C402.65,-285.55 285.45,-260.39 218.02,-245.91"/>
<polygon fill="black" stroke="black" points="218.83,-242.5 208.32,-243.82 217.36,-249.34 218.83,-242.5"/>
</g>
<!-- deposit_if_holding -->
<g id="node5" class="node">
<title>deposit_if_holding</title>
<polygon fill="orange" stroke="black" points="534.6,-252 451.85,-252 451.85,-216 534.6,-216 534.6,-252"/>
<text xml:space="preserve" text-anchor="middle" x="493.22" y="-230.7" font-family="Times,serif" font-size="9.00">deposit_if_holding</text>
</g>
<!-- main_loop&#45;&gt;deposit_if_holding -->
<g id="edge4" class="edge">
<title>main_loop&#45;&gt;deposit_if_holding</title>
<path fill="none" stroke="black" d="M493.22,-287.7C493.22,-280.41 493.22,-271.73 493.22,-263.54"/>
<polygon fill="black" stroke="black" points="496.72,-263.62 493.22,-253.62 489.72,-263.62 496.72,-263.62"/>
</g>
<!-- collect_new_object -->
<g id="node11" class="node">
<title>collect_new_object</title>
<polygon fill="orange" stroke="black" points="1037.97,-252 954.47,-252 954.47,-216 1037.97,-216 1037.97,-252"/>
<text xml:space="preserve" text-anchor="middle" x="996.22" y="-230.7" font-family="Times,serif" font-size="9.00">collect_new_object</text>
</g>
<!-- main_loop&#45;&gt;collect_new_object -->
<g id="edge10" class="edge">
<title>main_loop&#45;&gt;collect_new_object</title>
<path fill="none" stroke="black" d="M527.4,-300.24C613.4,-288.28 839.26,-256.84 942.88,-242.42"/>
<polygon fill="black" stroke="black" points="943.09,-245.93 952.51,-241.08 942.12,-239 943.09,-245.93"/>
</g>
<!-- sense_for_goal_check -->
<g id="node3" class="node">
<title>sense_for_goal_check</title>
<ellipse fill="gray" stroke="black" cx="55.22" cy="-162" rx="55.22" ry="18"/>
<text xml:space="preserve" text-anchor="middle" x="55.22" y="-158.7" font-family="Times,serif" font-size="9.00">sense_for_goal_check</text>
</g>
<!-- goal_already_met&#45;&gt;sense_for_goal_check -->
<g id="edge2" class="edge">
<title>goal_already_met&#45;&gt;sense_for_goal_check</title>
<path fill="none" stroke="black" d="M139.25,-215.52C124.12,-206.06 105.31,-194.3 89.33,-184.31"/>
<polygon fill="black" stroke="black" points="91.42,-181.49 81.08,-179.16 87.71,-187.43 91.42,-181.49"/>
</g>
<!-- target_reached -->
<g id="node4" class="node">
<title>target_reached</title>
<ellipse fill="gray" stroke="black" cx="167.22" cy="-162" rx="39.05" ry="18"/>
<text xml:space="preserve" text-anchor="middle" x="167.22" y="-158.7" font-family="Times,serif" font-size="9.00">target_reached</text>
</g>
<!-- goal_already_met&#45;&gt;target_reached -->
<g id="edge3" class="edge">
<title>goal_already_met&#45;&gt;target_reached</title>
<path fill="none" stroke="black" d="M167.22,-215.7C167.22,-208.41 167.22,-199.73 167.22,-191.54"/>
<polygon fill="black" stroke="black" points="170.72,-191.62 167.22,-181.62 163.72,-191.62 170.72,-191.62"/>
</g>
<!-- sense_before_deposit -->
<g id="node6" class="node">
<title>sense_before_deposit</title>
<ellipse fill="gray" stroke="black" cx="278.22" cy="-162" rx="53.91" ry="18"/>
<text xml:space="preserve" text-anchor="middle" x="278.22" y="-158.7" font-family="Times,serif" font-size="9.00">sense_before_deposit</text>
</g>
<!-- deposit_if_holding&#45;&gt;sense_before_deposit -->
<g id="edge5" class="edge">
<title>deposit_if_holding&#45;&gt;sense_before_deposit</title>
<path fill="none" stroke="black" d="M451.52,-219.42C415.73,-207.77 364.13,-190.97 326.55,-178.73"/>
<polygon fill="black" stroke="black" points="327.89,-175.49 317.3,-175.72 325.72,-182.15 327.89,-175.49"/>
</g>
<!-- has_object -->
<g id="node7" class="node">
<title>has_object</title>
<ellipse fill="gray" stroke="black" cx="381.22" cy="-162" rx="31.18" ry="18"/>
<text xml:space="preserve" text-anchor="middle" x="381.22" y="-158.7" font-family="Times,serif" font-size="9.00">has_object</text>
</g>
<!-- deposit_if_holding&#45;&gt;has_object -->
<g id="edge6" class="edge">
<title>deposit_if_holding&#45;&gt;has_object</title>
<path fill="none" stroke="black" d="M465.25,-215.52C448.79,-205.23 427.97,-192.21 411.17,-181.72"/>
<polygon fill="black" stroke="black" points="413.43,-179 403.09,-176.67 409.72,-184.93 413.43,-179"/>
</g>
<!-- enough_time_to_continue -->
<g id="node8" class="node">
<title>enough_time_to_continue</title>
<ellipse fill="gray" stroke="black" cx="493.22" cy="-162" rx="62.66" ry="18"/>
<text xml:space="preserve" text-anchor="middle" x="493.22" y="-158.7" font-family="Times,serif" font-size="9.00">enough_time_to_continue</text>
</g>
<!-- deposit_if_holding&#45;&gt;enough_time_to_continue -->
<g id="edge7" class="edge">
<title>deposit_if_holding&#45;&gt;enough_time_to_continue</title>
<path fill="none" stroke="black" d="M493.22,-215.7C493.22,-208.41 493.22,-199.73 493.22,-191.54"/>
<polygon fill="black" stroke="black" points="496.72,-191.62 493.22,-181.62 489.72,-191.62 496.72,-191.62"/>
</g>
<!-- go_to_dropoff -->
<g id="node9" class="node">
<title>go_to_dropoff</title>
<ellipse fill="gray" stroke="black" cx="613.22" cy="-162" rx="39.49" ry="18"/>
<text xml:space="preserve" text-anchor="middle" x="613.22" y="-158.7" font-family="Times,serif" font-size="9.00">go_to_dropoff</text>
</g>
<!-- deposit_if_holding&#45;&gt;go_to_dropoff -->
<g id="edge8" class="edge">
<title>deposit_if_holding&#45;&gt;go_to_dropoff</title>
<path fill="none" stroke="black" d="M523.2,-215.52C540.37,-205.5 561.97,-192.9 579.71,-182.55"/>
<polygon fill="black" stroke="black" points="581.46,-185.58 588.34,-177.52 577.94,-179.53 581.46,-185.58"/>
</g>
<!-- deposit_object -->
<g id="node10" class="node">
<title>deposit_object</title>
<ellipse fill="gray" stroke="black" cx="710.22" cy="-162" rx="39.05" ry="18"/>
<text xml:space="preserve" text-anchor="middle" x="710.22" y="-158.7" font-family="Times,serif" font-size="9.00">deposit_object</text>
</g>
<!-- deposit_if_holding&#45;&gt;deposit_object -->
<g id="edge9" class="edge">
<title>deposit_if_holding&#45;&gt;deposit_object</title>
<path fill="none" stroke="black" d="M534.75,-220.26C568.82,-209.72 618.26,-194.23 661.22,-180 663.75,-179.16 666.34,-178.29 668.96,-177.41"/>
<polygon fill="black" stroke="black" points="669.92,-180.78 678.26,-174.23 667.66,-174.16 669.92,-180.78"/>
</g>
<!-- sense_for_collection -->
<g id="node12" class="node">
<title>sense_for_collection</title>
<ellipse fill="gray" stroke="black" cx="819.22" cy="-162" rx="51.73" ry="18"/>
<text xml:space="preserve" text-anchor="middle" x="819.22" y="-158.7" font-family="Times,serif" font-size="9.00">sense_for_collection</text>
</g>
<!-- collect_new_object&#45;&gt;sense_for_collection -->
<g id="edge11" class="edge">
<title>collect_new_object&#45;&gt;sense_for_collection</title>
<path fill="none" stroke="black" d="M954.28,-216.41C926.84,-205.56 891.06,-191.41 863.22,-180.4"/>
<polygon fill="black" stroke="black" points="864.59,-177.18 854,-176.75 862.01,-183.69 864.59,-177.18"/>
</g>
<!-- have_time_to_collect -->
<g id="node13" class="node">
<title>have_time_to_collect</title>
<ellipse fill="gray" stroke="black" cx="941.22" cy="-162" rx="52.6" ry="18"/>
<text xml:space="preserve" text-anchor="middle" x="941.22" y="-158.7" font-family="Times,serif" font-size="9.00">have_time_to_collect</text>
</g>
<!-- collect_new_object&#45;&gt;have_time_to_collect -->
<g id="edge12" class="edge">
<title>collect_new_object&#45;&gt;have_time_to_collect</title>
<path fill="none" stroke="black" d="M982.63,-215.7C976.21,-207.52 968.41,-197.6 961.33,-188.58"/>
<polygon fill="black" stroke="black" points="964.15,-186.51 955.22,-180.81 958.65,-190.84 964.15,-186.51"/>
</g>
<!-- capacity_check -->
<g id="node14" class="node">
<title>capacity_check</title>
<ellipse fill="gray" stroke="black" cx="1052.22" cy="-162" rx="40.36" ry="18"/>
<text xml:space="preserve" text-anchor="middle" x="1052.22" y="-158.7" font-family="Times,serif" font-size="9.00">capacity_check</text>
</g>
<!-- collect_new_object&#45;&gt;capacity_check -->
<g id="edge13" class="edge">
<title>collect_new_object&#45;&gt;capacity_check</title>
<path fill="none" stroke="black" d="M1010.07,-215.7C1016.77,-207.32 1024.95,-197.1 1032.31,-187.9"/>
<polygon fill="black" stroke="black" points="1034.85,-190.32 1038.36,-180.33 1029.38,-185.95 1034.85,-190.32"/>
</g>
<!-- choose_best_visible_target -->
<g id="node15" class="node">
<title>choose_best_visible_target</title>
<ellipse fill="gray" stroke="black" cx="1175.22" cy="-162" rx="64.84" ry="18"/>
<text xml:space="preserve" text-anchor="middle" x="1175.22" y="-158.7" font-family="Times,serif" font-size="9.00">choose_best_visible_target</text>
</g>
<!-- collect_new_object&#45;&gt;choose_best_visible_target -->
<g id="edge14" class="edge">
<title>collect_new_object&#45;&gt;choose_best_visible_target</title>
<path fill="none" stroke="black" d="M1038.19,-216.59C1065.1,-206.06 1100.09,-192.38 1127.98,-181.48"/>
<polygon fill="black" stroke="black" points="1129.22,-184.75 1137.26,-177.85 1126.67,-178.23 1129.22,-184.75"/>
</g>
<!-- approach_and_pick_or_replan -->
<g id="node16" class="node">
<title>approach_and_pick_or_replan</title>
<polygon fill="cyan" stroke="black" points="1413.98,-154.54 1413.98,-169.46 1368.43,-180 1304.02,-180 1258.47,-169.46 1258.47,-154.54 1304.02,-144 1368.43,-144 1413.98,-154.54"/>
<text xml:space="preserve" text-anchor="middle" x="1336.22" y="-158.7" font-family="Times,serif" font-size="9.00">approach_and_pick_or_replan</text>
</g>
<!-- collect_new_object&#45;&gt;approach_and_pick_or_replan -->
<g id="edge15" class="edge">
<title>collect_new_object&#45;&gt;approach_and_pick_or_replan</title>
<path fill="none" stroke="black" d="M1038.26,-224.35C1095.73,-212.51 1199.53,-191.14 1268.17,-177.01"/>
<polygon fill="black" stroke="black" points="1268.72,-180.47 1277.81,-175.03 1267.31,-173.62 1268.72,-180.47"/>
</g>
<!-- pickup_flow -->
<g id="node17" class="node">
<title>pickup_flow</title>
<polygon fill="orange" stroke="black" points="1278.72,-108 1217.72,-108 1217.72,-72 1278.72,-72 1278.72,-108"/>
<text xml:space="preserve" text-anchor="middle" x="1248.22" y="-86.7" font-family="Times,serif" font-size="9.00">pickup_flow</text>
</g>
<!-- approach_and_pick_or_replan&#45;&gt;pickup_flow -->
<g id="edge16" class="edge">
<title>approach_and_pick_or_replan&#45;&gt;pickup_flow</title>
<path fill="none" stroke="black" d="M1314.47,-143.7C1303.79,-135.2 1290.73,-124.81 1279.04,-115.51"/>
<polygon fill="black" stroke="black" points="1281.22,-112.78 1271.22,-109.29 1276.86,-118.25 1281.22,-112.78"/>
</g>
<!-- replan_if_target_invalid -->
<g id="node23" class="node">
<title>replan_if_target_invalid</title>
<polygon fill="orange" stroke="black" points="1473.22,-108 1373.22,-108 1373.22,-72 1473.22,-72 1473.22,-108"/>
<text xml:space="preserve" text-anchor="middle" x="1423.22" y="-86.7" font-family="Times,serif" font-size="9.00">replan_if_target_invalid</text>
</g>
<!-- approach_and_pick_or_replan&#45;&gt;replan_if_target_invalid -->
<g id="edge22" class="edge">
<title>approach_and_pick_or_replan&#45;&gt;replan_if_target_invalid</title>
<path fill="none" stroke="black" d="M1357.73,-143.7C1368.29,-135.2 1381.2,-124.81 1392.76,-115.51"/>
<polygon fill="black" stroke="black" points="1394.89,-118.29 1400.49,-109.3 1390.5,-112.84 1394.89,-118.29"/>
</g>
<!-- target_available_initial -->
<g id="node18" class="node">
<title>target_available_initial</title>
<ellipse fill="gray" stroke="black" cx="978.22" cy="-18" rx="55.22" ry="18"/>
<text xml:space="preserve" text-anchor="middle" x="978.22" y="-14.7" font-family="Times,serif" font-size="9.00">target_available_initial</text>
</g>
<!-- pickup_flow&#45;&gt;target_available_initial -->
<g id="edge17" class="edge">
<title>pickup_flow&#45;&gt;target_available_initial</title>
<path fill="none" stroke="black" d="M1217.49,-81.17C1177.22,-70.9 1104.39,-52.25 1042.22,-36 1038.5,-35.03 1034.65,-34.01 1030.77,-32.99"/>
<polygon fill="black" stroke="black" points="1031.89,-29.67 1021.33,-30.5 1030.11,-36.44 1031.89,-29.67"/>
</g>
<!-- move_to_target -->
<g id="node19" class="node">
<title>move_to_target</title>
<ellipse fill="gray" stroke="black" cx="1092.22" cy="-18" rx="41.24" ry="18"/>
<text xml:space="preserve" text-anchor="middle" x="1092.22" y="-14.7" font-family="Times,serif" font-size="9.00">move_to_target</text>
</g>
<!-- pickup_flow&#45;&gt;move_to_target -->
<g id="edge18" class="edge">
<title>pickup_flow&#45;&gt;move_to_target</title>
<path fill="none" stroke="black" d="M1217.4,-75.17C1192.48,-63.98 1157.25,-48.18 1130.51,-36.18"/>
<polygon fill="black" stroke="black" points="1132.3,-33.14 1121.74,-32.24 1129.43,-39.53 1132.3,-33.14"/>
</g>
<!-- sense_at_target -->
<g id="node20" class="node">
<title>sense_at_target</title>
<ellipse fill="gray" stroke="black" cx="1192.22" cy="-18" rx="40.8" ry="18"/>
<text xml:space="preserve" text-anchor="middle" x="1192.22" y="-14.7" font-family="Times,serif" font-size="9.00">sense_at_target</text>
</g>
<!-- pickup_flow&#45;&gt;sense_at_target -->
<g id="edge19" class="edge">
<title>pickup_flow&#45;&gt;sense_at_target</title>
<path fill="none" stroke="black" d="M1234.38,-71.7C1227.68,-63.32 1219.5,-53.1 1212.14,-43.9"/>
<polygon fill="black" stroke="black" points="1215.07,-41.95 1206.09,-36.33 1209.6,-46.32 1215.07,-41.95"/>
</g>
<!-- target_available_final -->
<g id="node21" class="node">
<title>target_available_final</title>
<ellipse fill="gray" stroke="black" cx="1304.22" cy="-18" rx="53.04" ry="18"/>
<text xml:space="preserve" text-anchor="middle" x="1304.22" y="-14.7" font-family="Times,serif" font-size="9.00">target_available_final</text>
</g>
<!-- pickup_flow&#45;&gt;target_available_final -->
<g id="edge20" class="edge">
<title>pickup_flow&#45;&gt;target_available_final</title>
<path fill="none" stroke="black" d="M1262.07,-71.7C1268.61,-63.52 1276.54,-53.6 1283.76,-44.58"/>
<polygon fill="black" stroke="black" points="1286.47,-46.8 1289.98,-36.8 1281,-42.43 1286.47,-46.8"/>
</g>
<!-- pickup_target -->
<g id="node22" class="node">
<title>pickup_target</title>
<ellipse fill="gray" stroke="black" cx="1412.22" cy="-18" rx="37.3" ry="18"/>
<text xml:space="preserve" text-anchor="middle" x="1412.22" y="-14.7" font-family="Times,serif" font-size="9.00">pickup_target</text>
</g>
<!-- pickup_flow&#45;&gt;pickup_target -->
<g id="edge21" class="edge">
<title>pickup_flow&#45;&gt;pickup_target</title>
<path fill="none" stroke="black" d="M1279.07,-75.83C1306.06,-64.31 1345.35,-47.54 1374.26,-35.2"/>
<polygon fill="black" stroke="black" points="1375.57,-38.45 1383.39,-31.31 1372.82,-32.01 1375.57,-38.45"/>
</g>
<!-- clear_target -->
<g id="node24" class="node">
<title>clear_target</title>
<ellipse fill="gray" stroke="black" cx="1500.22" cy="-18" rx="32.93" ry="18"/>
<text xml:space="preserve" text-anchor="middle" x="1500.22" y="-14.7" font-family="Times,serif" font-size="9.00">clear_target</text>
</g>
<!-- replan_if_target_invalid&#45;&gt;clear_target -->
<g id="edge23" class="edge">
<title>replan_if_target_invalid&#45;&gt;clear_target</title>
<path fill="none" stroke="black" d="M1442.26,-71.7C1452.31,-62.56 1464.76,-51.24 1475.54,-41.44"/>
<polygon fill="black" stroke="black" points="1477.59,-44.3 1482.64,-34.99 1472.88,-39.12 1477.59,-44.3"/>
</g>
</g>
</svg>
